<?xml version="1.0" encoding="utf-8"?>
<!-- Generator: Adobe Illustrator 23.0.1, SVG Export Plug-In . SVG Version: 6.00 Build 0)  -->
<svg version="1.1" id="Capa_1" xmlns="http://www.w3.org/2000/svg" xmlns:xlink="http://www.w3.org/1999/xlink" x="0px" y="0px"
	 viewBox="0 0 219.2 219.2" style="enable-background:new 0 0 219.2 219.2;" xml:space="preserve">
<path d="M109.6,219.2c60.4,0,109.6-49.2,109.6-109.6C219.1,49.2,170,0,109.6,0S0,49.2,0,109.6C0,170,49.2,219.2,109.6,219.2z
	 M109.6,15c52.1,0,94.6,42.4,94.6,94.6c0,52.1-42.4,94.6-94.6,94.6c-52.1,0-94.6-42.4-94.6-94.6C15,57.4,57.4,15,109.6,15z"/>
<path d="M151.1,57.5l-46.8,46.8l-46.8,46.8c-2.9,2.9-2.9,7.7,0,10.6c2.9,2.9,7.7,2.9,10.6,0l34.6-34.5l0,0l12.2-12.2l12.2-12.2l0,0
	l34.5-34.6c2.9-2.9,2.9-7.7,0-10.6C158.7,54.6,154,54.6,151.1,57.5z"/>
<path d="M68.1,57.5l46.8,46.8l46.8,46.8c2.9,2.9,2.9,7.7,0,10.6c-2.9,2.9-7.7,2.9-10.6,0l-34.6-34.5l0,0l-12.2-12.2L92,102.7l0,0
	L57.5,68.1c-2.9-2.9-2.9-7.7,0-10.6C60.4,54.6,65.2,54.6,68.1,57.5z"/>
</svg>
